# xmcd
#
# Track frame offsets:
#	150
#	14970
#	30585
#	46632
#	61182
#	74938
#	89840
#	102589
#	122579
#	136895
#	156258
#	169317
#	183743
#	202129
#	215244
#	226688
#	249499
#	264356
#	274663
#	289132
#
# Disc length: 4024 seconds
# Revision: 0
# Processed by: cddbd v1.5.2PL0 Copyright (c) Steve Scherf et al.
# Submitted via: dBpowerAMP V12.0
#
DISCID=3c0fb614
DTITLE=Renée Martel - Authentique
DYEAR=1992
DGENRE=Country
TTITLE0=Je reviens
TTITLE1=Laisse-moi te dire
TTITLE2=Amour secret
TTITLE3=J'm'ennuie de toi
TTITLE4=Ton cheval blanc
TTITLE5=Je t'aime un point c'est tout
TTITLE6=Le goût de te retrouver
TTITLE7=Seule
TTITLE8=Ne m'oublie pas
TTITLE9=Ma chanson d'amour
TTITLE10=Un coin du ciel
TTITLE11=Il est là
TTITLE12=J'ai confiance en toi
TTITLE13=Try Me Again
TTITLE14=Hey Paula (avec Johnny Farago)
TTITLE15=El lute
TTITLE16=Raindrops Keep Falling On My Head
TTITLE17=Tu es revenu
TTITLE18=Un amour comme le nôtre
TTITLE19=Une femme pour la vie
EXTD=
EXTT0=
EXTT1=
EXTT2=
EXTT3=
EXTT4=
EXTT5=
EXTT6=
EXTT7=
EXTT8=
EXTT9=
EXTT10=
EXTT11=
EXTT12=
EXTT13=
EXTT14=
EXTT15=
EXTT16=
EXTT17=
EXTT18=
EXTT19=
PLAYORDER=
